<svg xmlns="http://www.w3.org/2000/svg" width="200" height="30.1" viewBox="0 0 200 30.1">
  <g id="Layer_2" data-name="Layer 2">
    <g id="Layer_1-2" data-name="Layer 1">
      <g>
        <path d="M47.83,23.91h2.56L41.64,4.1,32.88,23.91h2.56l2.39-5.66h7.6Zm-3.3-7.82H38.75L41.64,9.3Z" fill="#fff"/>
        <path d="M62.76,14.21a5.05,5.05,0,0,0-2-2.2,6.11,6.11,0,0,0-3.14-.77,6.51,6.51,0,0,0-2.5.47A5.76,5.76,0,0,0,53.17,13a6.05,6.05,0,0,0-1.26,2,7.61,7.61,0,0,0-.44,2.64,7.4,7.4,0,0,0,.74,3.37,5.51,5.51,0,0,0,2.08,2.27,5.64,5.64,0,0,0,3.05.83,7.2,7.2,0,0,0,3.47-.8A6.53,6.53,0,0,0,63.24,21l-1.75-1.1a4.57,4.57,0,0,1-1.64,1.68,4.43,4.43,0,0,1-2.24.55,4.06,4.06,0,0,1-2.15-.53,3.37,3.37,0,0,1-1.35-1.57,5.67,5.67,0,0,1-.4-1.8h9.72s0-.12,0-.26,0-.26,0-.39A7.57,7.57,0,0,0,62.76,14.21Zm-8.06.08A3.18,3.18,0,0,1,56,13.43a4.33,4.33,0,0,1,1.65-.3,3.5,3.5,0,0,1,1.83.46,3.17,3.17,0,0,1,1.23,1.26,3.72,3.72,0,0,1,.41,1.57H53.76a5.21,5.21,0,0,1,.16-.73A3.72,3.72,0,0,1,54.7,14.29Z" fill="#fff"/>
        <path d="M75.72,11.51v2.17a6.24,6.24,0,0,0-.47-.71,4.55,4.55,0,0,0-1.65-1.28,4.87,4.87,0,0,0-2.11-.45,6.17,6.17,0,0,0-3.07.78,5.92,5.92,0,0,0-2.24,2.23,6.74,6.74,0,0,0-.83,3.46,6.78,6.78,0,0,0,.83,3.45,5.78,5.78,0,0,0,2.24,2.23,6.18,6.18,0,0,0,3.07.79,4.87,4.87,0,0,0,2.11-.45,4.66,4.66,0,0,0,1.65-1.28,5.59,5.59,0,0,0,.47-.72v1.91a4.71,4.71,0,0,1-.61,2.54,3.67,3.67,0,0,1-1.52,1.44,4.06,4.06,0,0,1-1.86.46,4.46,4.46,0,0,1-2.1-.47,3.62,3.62,0,0,1-1.38-1.24,3.06,3.06,0,0,1-.48-1.66H65.59a5.06,5.06,0,0,0,3,4.72,7.19,7.19,0,0,0,3.19.67,6.26,6.26,0,0,0,3-.73A5.71,5.71,0,0,0,77,27.21a6.66,6.66,0,0,0,.89-3.57V11.51Zm-.35,8.1A4.46,4.46,0,0,1,74.44,21a4.3,4.3,0,0,1-1.28.86,3.55,3.55,0,0,1-1.4.29,4.41,4.41,0,0,1-2.1-.51,3.75,3.75,0,0,1-1.55-1.51,4.69,4.69,0,0,1-.58-2.42,4.75,4.75,0,0,1,.58-2.43,3.79,3.79,0,0,1,1.55-1.5,4.3,4.3,0,0,1,2.1-.52,3.57,3.57,0,0,1,1.4.3,4.12,4.12,0,0,1,1.28.86,4.46,4.46,0,0,1,.93,1.39,5.33,5.33,0,0,1,0,3.8Z" fill="#fff"/>
        <path d="M92,14.21A5.05,5.05,0,0,0,90,12a6.09,6.09,0,0,0-3.14-.77,6.51,6.51,0,0,0-2.5.47A5.76,5.76,0,0,0,82.4,13a5.87,5.87,0,0,0-1.25,2,7.39,7.39,0,0,0-.45,2.64,7.4,7.4,0,0,0,.74,3.37,5.57,5.57,0,0,0,2.08,2.27,5.69,5.69,0,0,0,3,.83,7.2,7.2,0,0,0,3.47-.8A6.55,6.55,0,0,0,92.48,21l-1.76-1.1a4.57,4.57,0,0,1-1.64,1.68,4.43,4.43,0,0,1-2.24.55,4.06,4.06,0,0,1-2.15-.53,3.42,3.42,0,0,1-1.35-1.57,5.67,5.67,0,0,1-.4-1.8h9.72s0-.12,0-.26,0-.26,0-.39A7.57,7.57,0,0,0,92,14.21Zm-8.06.08a3.26,3.26,0,0,1,1.26-.86,4.33,4.33,0,0,1,1.65-.3,3.57,3.57,0,0,1,1.84.46,3.15,3.15,0,0,1,1.22,1.26,3.72,3.72,0,0,1,.41,1.57H83a5.21,5.21,0,0,1,.16-.73A3.72,3.72,0,0,1,83.93,14.29Z" fill="#fff"/>
        <path d="M104.37,13a3.72,3.72,0,0,0-1.7-1.28,6.59,6.59,0,0,0-2.54-.45,7.64,7.64,0,0,0-2.95.51,10.14,10.14,0,0,0-1.93,1l1,1.59a7.41,7.41,0,0,1,.81-.51,5.88,5.88,0,0,1,1.25-.52,6.13,6.13,0,0,1,1.66-.21,4.71,4.71,0,0,1,1.08.11,2.77,2.77,0,0,1,.9.35,1.69,1.69,0,0,1,.61.66,2.35,2.35,0,0,1,.21,1.06v1.81a5.27,5.27,0,0,0-1.28-.61,6.9,6.9,0,0,0-2.25-.31,6.28,6.28,0,0,0-2.6.5,3.85,3.85,0,0,0-.08,7,4.78,4.78,0,0,0,2.12.48,6,6,0,0,0,2.06-.38,4.37,4.37,0,0,0,1.75-1.16,2.47,2.47,0,0,0,.28-.38v1.65H105V15A3.4,3.4,0,0,0,104.37,13Zm-2,7.8a3.18,3.18,0,0,1-1.27,1.14,3.87,3.87,0,0,1-1.79.41,3.59,3.59,0,0,1-1.39-.26,2.1,2.1,0,0,1-.94-.77,2.18,2.18,0,0,1-.34-1.21A2,2,0,0,1,97,18.92a2.06,2.06,0,0,1,1-.75,4.57,4.57,0,0,1,1.71-.27,7.67,7.67,0,0,1,2.13.28,5.86,5.86,0,0,1,1,.41v.47A3.18,3.18,0,0,1,102.35,20.77Z" fill="#fff"/>
        <path d="M116.27,14.65a2.23,2.23,0,0,0-.89-1,2.87,2.87,0,0,0-1.46-.35,3.42,3.42,0,0,0-1.66.39,2.77,2.77,0,0,0-1.1,1.1,3.23,3.23,0,0,0-.39,1.61v7.55h-2.16V11.51h2.16v1.94a4,4,0,0,1,3.69-2.21,4.12,4.12,0,0,1,2.26.6,3.93,3.93,0,0,1,1.47,1.67,5.82,5.82,0,0,1,.53,2.58v7.82h-2.16V16.36A4.49,4.49,0,0,0,116.27,14.65Z" fill="#fff"/>
        <path d="M140.81,23.91h2.83L138,16.14a6.25,6.25,0,0,0,1.36-.47,5.54,5.54,0,0,0,2.29-2,5.37,5.37,0,0,0,.85-3,5.32,5.32,0,0,0-.85-3,5.61,5.61,0,0,0-2.29-2,7.66,7.66,0,0,0-3.28-.68H131V23.91h2.29V16.36h2.3ZM133.26,7.07h2.83a5,5,0,0,1,2.15.43,3.39,3.39,0,0,1,1.45,1.24,3.52,3.52,0,0,1,.53,2,3.53,3.53,0,0,1-.53,2,3.39,3.39,0,0,1-1.45,1.24,5,5,0,0,1-2.15.43h-2.83Z" fill="#fff"/>
        <path d="M156.14,14.21a5.05,5.05,0,0,0-2-2.2,6.11,6.11,0,0,0-3.14-.77,6.51,6.51,0,0,0-2.5.47A5.76,5.76,0,0,0,146.55,13a6.05,6.05,0,0,0-1.26,2,7.61,7.61,0,0,0-.44,2.64,7.4,7.4,0,0,0,.74,3.37,5.51,5.51,0,0,0,2.08,2.27,5.64,5.64,0,0,0,3.05.83,7.2,7.2,0,0,0,3.47-.8A6.53,6.53,0,0,0,156.62,21l-1.75-1.1a4.57,4.57,0,0,1-1.64,1.68,4.43,4.43,0,0,1-2.24.55,4.06,4.06,0,0,1-2.15-.53,3.42,3.42,0,0,1-1.35-1.57,5.67,5.67,0,0,1-.4-1.8h9.72s0-.12,0-.26,0-.26,0-.39A7.57,7.57,0,0,0,156.14,14.21Zm-8.06.08a3.18,3.18,0,0,1,1.26-.86,4.33,4.33,0,0,1,1.65-.3,3.57,3.57,0,0,1,1.84.46,3.22,3.22,0,0,1,1.22,1.26,3.72,3.72,0,0,1,.41,1.57h-7.32a5.21,5.21,0,0,1,.16-.73A3.72,3.72,0,0,1,148.08,14.29Z" fill="#fff"/>
        <path d="M161.18,21.16a3.74,3.74,0,0,0,1.11.77,3.56,3.56,0,0,0,1.39.28,2.24,2.24,0,0,0,1.44-.42,1.39,1.39,0,0,0,.53-1.14,1.54,1.54,0,0,0-.42-1.1,3.72,3.72,0,0,0-1.06-.75,14.68,14.68,0,0,0-1.38-.58,14.06,14.06,0,0,1-1.63-.77,4.16,4.16,0,0,1-1.37-1.16,2.81,2.81,0,0,1-.55-1.79,2.84,2.84,0,0,1,.58-1.83,3.52,3.52,0,0,1,1.5-1.08,5.54,5.54,0,0,1,1.93-.35,5.22,5.22,0,0,1,1.87.33,5.3,5.3,0,0,1,1.55.86,4,4,0,0,1,1.05,1.24L166,14.77a4.46,4.46,0,0,0-1.28-1.16,3.37,3.37,0,0,0-1.74-.45,2.17,2.17,0,0,0-1.16.29,1,1,0,0,0-.48.92,1.16,1.16,0,0,0,.38.86,3.46,3.46,0,0,0,1,.67q.59.3,1.23.57a17.25,17.25,0,0,1,2,.93,4.44,4.44,0,0,1,1.42,1.2,2.93,2.93,0,0,1,.52,1.8,3.53,3.53,0,0,1-.54,1.93,3.9,3.9,0,0,1-1.49,1.35,4.79,4.79,0,0,1-2.23.5,5.35,5.35,0,0,1-2.23-.45,5.41,5.41,0,0,1-2.72-2.57l1.69-1.05A7.82,7.82,0,0,0,161.18,21.16Z" fill="#fff"/>
        <path d="M170.43,14.37a6.16,6.16,0,0,1,2.3-2.29,6.78,6.78,0,0,1,6.54,0,6.21,6.21,0,0,1,2.29,2.29,6.56,6.56,0,0,1,.85,3.34,6.6,6.6,0,0,1-.85,3.33,6.24,6.24,0,0,1-2.29,2.3,6.78,6.78,0,0,1-6.54,0,6.19,6.19,0,0,1-2.3-2.3,6.6,6.6,0,0,1-.85-3.33A6.56,6.56,0,0,1,170.43,14.37ZM172.32,20a4.17,4.17,0,0,0,1.51,1.58,4.4,4.4,0,0,0,4.33,0A4.24,4.24,0,0,0,179.67,20a4.65,4.65,0,0,0,.55-2.29,4.69,4.69,0,0,0-.55-2.3,4,4,0,0,0-1.51-1.58,4.4,4.4,0,0,0-4.33,0,4,4,0,0,0-1.51,1.58,5,5,0,0,0,0,4.59Z" fill="#fff"/>
        <path d="M191.39,11.42a4.15,4.15,0,0,0-1.25-.18,2.7,2.7,0,0,0-1.7.68,4.5,4.5,0,0,0-.91,1.06V11.51h-2.16v12.4h2.16V16.36a6.46,6.46,0,0,1,.17-1.59,2.18,2.18,0,0,1,.63-1.1,1.86,1.86,0,0,1,1.27-.41,2.26,2.26,0,0,1,.89.15,4.35,4.35,0,0,1,.78.47l1.19-1.77A2.35,2.35,0,0,0,191.39,11.42Z" fill="#fff"/>
        <polygon points="200 11.51 197.98 11.51 197.98 7.2 195.82 7.2 195.82 11.51 193.8 11.51 193.8 13.53 195.82 13.53 195.82 23.91 197.98 23.91 197.98 13.53 200 13.53 200 11.51" fill="#fff"/>
        <path d="M24.62,13.41a12.44,12.44,0,0,1-24.37,0A13,13,0,0,0,0,15.92a12.44,12.44,0,0,0,24.87,0,12.21,12.21,0,0,0-.25-2.51" fill="#fff"/>
        <path d="M6.72,3.25a9.66,9.66,0,0,0-1.58,1.3A10.07,10.07,0,0,0,19.39,18.79a9.53,9.53,0,0,0,1.28-1.58,10.07,10.07,0,0,1-14-14" fill="#fff"/>
        <path d="M15.12,0A8.4,8.4,0,0,0,15,16.79h.15a8.73,8.73,0,0,0,1.54-.14C9.4,8,17,.2,17,.2A8.39,8.39,0,0,0,15.27,0h-.15" fill="#fff"/>
      </g>
    </g>
  </g>
</svg>
